<svg xmlns="http://www.w3.org/2000/svg" width="64" height="64" id="sport"><circle cx="39.689" cy="36.864" r="14.312" fill="#ff6d00" transform="rotate(-14.816 39.69 36.864)"></circle><circle cx="30.078" cy="27.94" r="14.312" fill="#ab0738" transform="rotate(-14.816 30.078 27.94)"></circle><path fill="#f2f3f4" d="m32.01 53.276 1.532-.141 1.296 2.266-1.359 1.109-1.25-1.469-.328-1.734z"></path><path fill="#32313c" d="m28.479 33.484 3.833.917 5.542 1.187 3.833 3.729 4.125 5.042 1.323 2.823.136.927-2 2.583-4 1.75-6.558 3.506-1.671-2.922 2-1.094 6-4.406-1.396-1.084-4.75-2.375-1.917.459-2.375 1.208-.583 1.583-1.698-2.323-3.219-.135-.917-.167 2.209-4.875 1.458-5.208z"></path><path fill="#edb29f" d="m36.146 14.963.979-.875h3.25l2.896 1.292.104 1.5-1.167 1.792 2.584-1.521 2.833-2.625.437-.917 1.771 1.292-2.323 3.656-.531 1.156.406.438 2.5.187.969-1.156.781-3.063 3.094.198-.833 3.292-1.667 4-5.906.573-.594.812-6.594-1.062-1.489-3.323-1.209-2.375z"></path><path fill="#ff6d00" d="m30.604 34.609-2.417 6.208 1.792-1.458 1.75-5.083z"></path><path fill="#ab0738" d="m40.448 23.557.062-4.406-3.78-.313-2.845.844-1.864 2.344-1.48 7.312-2.25 4.719s-.187-.063 1.782.406 1.25.438 3.125 1.406c1.875.97 2.469 1.125 3.562.97s1.532-.813 1.532-.813l-.25-.688 3.312-5.562 1.5-4.844.969-.344 1.906.406.594-.812s.625-1.906.531-2.563.219-1.312.219-1.312l-1.063.562-1.968 1.094-3 .563-.594 1.031zM32.646 53.13s.396.625.375 1-.584.542-.354.958c.229.417.833 1.104.833 1.104l.02 3.5.647 1-.584.855-1.541-.042-1.709-4.292-.75-3.479.646-.542 1.417-.187 1 .125z"></path><path fill="#e6e7e8" d="m47.135 47.182-.114-1.156 1.416-.209 2.021-.02.834.77-.584.73-2.208 1.187-1.5.396z"></path><path fill="#ff6d00" d="m34.73 58.484-1.892.323-.28-1.516 1.421-1.015 1.583-1.209 4.459-1.5 2.25-1.5s2.166-1.166 2.708-1.541c.542-.375 2.625-1.5 2.625-1.5s3.583-2.084 3.875-1.792c.292.292-.875 1.083-.875 1.083l-2.687 2.802-1.146 1.115s-1.625.792-1.792.792c-.167 0-1.667-.125-1.667-.125l-5.916 3.791-2.667 1.792z"></path><path fill="#ab0738" d="M50.76 46.088c.11.11.453.281.11.656s-1.89 1.297-2.328 1.438-2.063.969-2.344 1.14-1.047.97-1.047.97l.016.28 5.53-2.718 1-.813-.609-.843-.328-.11z"></path><path fill="#e6e7e8" d="m51.5 16.838 2.687.479.396-2.5.542-2.562.146-1.438-1.667-.645-.875-.48-1.229 1.105.042 1.77-.084 2.021.313 1.479z"></path><path fill="#546187" d="M54.272 16.79s-.708.28-1.199.225c-.49-.055-1.446-.49-1.446-.49l.402-1.332s.506.275 1.22.33c.715.055 1.114.05 1.114.05l-.091 1.217z"></path><path fill="#231f20" d="M7.52 62.193a.5.5 0 0 1-.002-1l35.075-.137c.312-.03.5.222.502.498a.5.5 0 0 1-.498.502l-35.075.137H7.52z"></path><path fill="#ab0738" d="M47.833 51.395a.098.098 0 0 1-.093-.064 2.832 2.832 0 0 0-.804-1.124.1.1 0 0 1-.011-.14.1.1 0 0 1 .14-.012c.384.325.682.742.86 1.204a.098.098 0 0 1-.056.13.095.095 0 0 1-.036.006zm-2.781 1.64a.098.098 0 0 1-.093-.063 2.832 2.832 0 0 0-.804-1.124.1.1 0 0 1-.012-.14.1.1 0 0 1 .141-.012c.384.325.682.742.86 1.204a.098.098 0 0 1-.056.129.095.095 0 0 1-.036.007zm-8.397 4.396a.098.098 0 0 1-.093-.063 2.824 2.824 0 0 0-.803-1.124.1.1 0 0 1-.012-.141.1.1 0 0 1 .14-.012c.267.226.633.617.861 1.204a.098.098 0 0 1-.057.13.095.095 0 0 1-.036.006z"></path><path fill="#231f20" d="M46.23 25.495a.465.465 0 0 1-.083-.007c-.67-.112-2.498-.408-2.886-.432a.5.5 0 0 1-.468-.53c.017-.275.228-.5.53-.468.38.023 1.71.234 2.47.358l.033-.292a.5.5 0 0 1 .469-.441c.28-.017 1.697-.092 2.136-.026.325.037 2.604-.215 3.245-.368.344-.082.351-.084.74-.876l.179-.36c.432-.866.97-3.991 1.14-5.122.003-.036.15-1.465.367-2.247.125-.45.358-1.097.552-1.632.13-.355.24-.657.281-.806.051-.186.004-.522-.026-.646a.515.515 0 0 1-.013-.145 1.85 1.85 0 0 0-.002-.194.524.524 0 0 1-.367.038c-.181-.053-.336-.188-.373-.37a.5.5 0 0 1-.81-.28.874.874 0 0 0-.077-.208c-.005.017-.035.027-.042.032a.5.5 0 0 1-.613-.132l-.27-.333a.526.526 0 0 1-.699-.208c-.13-.244-.058-.546.186-.675.365-.193.924-.195 1.288.252l.064.078a.918.918 0 0 1 .648.141.891.891 0 0 1 .126.108.696.696 0 0 1 .647.103c.131.093.23.206.307.323a.79.79 0 0 1 .467.067c.488.225.533.898.521 1.245.038.187.114.667.002 1.071-.046.163-.165.493-.304.88-.186.512-.41 1.13-.53 1.559-.195.7-.337 2.09-.338 2.104-.068.456-.657 4.281-1.238 5.443l-.175.354c-.422.86-.597 1.217-1.406 1.41-.627.149-3.115.461-3.63.382-.198-.03-.9-.014-1.507.015l-.044.392a.5.5 0 0 1-.498.443z"></path><path fill="#282728" d="M34.026 52.557s1.016 2.266 1.156 2.422 1.469-.25 1.469-.25l-1.234-2.875-1.391.703z"></path><path fill="#a7a9ac" d="M34.555 52.895s.625 1.392.711 1.488c.086.097.903-.153.903-.153l-.759-1.767-.855.432z"></path><path fill="#282728" d="M37.557 50.09s1.735 2.831 1.93 3.01c.196.18 1.503-.67 1.503-.67l-2.144-3.604-1.29 1.265z"></path><path fill="#a7a9ac" d="M38.22 50.428s1.067 1.739 1.187 1.85c.12.11.923-.413.923-.413l-1.317-2.215-.793.778z"></path><path fill="#231f20" d="M45.104 50.984a.5.5 0 0 1-.271-.92c1.999-1.29 1.894-2.122 1.81-2.791-.08-.64-.287-1.266-2.386-4.274-2.003-2.869-6.686-6.994-6.733-7.035a.505.505 0 0 1-.039-.713c.016-.016 1.55-1.72 2.94-4.984.24-.56.595-1.64.94-2.686.516-1.568.845-2.546 1.06-2.906.348-.579.982-.892 1.361-1.08.071-.035.129-.062.165-.085.197-.197.49-.177.686.019s.173.53-.023.725c-.093.093-.209.15-.385.238-.28.138-.75.37-.946.697-.174.29-.615 1.63-.969 2.705-.35 1.064-.712 2.166-.968 2.766-1.09 2.552-2.247 4.18-2.798 4.877 1.162 1.045 4.767 4.367 6.53 6.89 2.16 3.097 2.447 3.838 2.554 4.693.103.823.27 2.154-2.256 3.784a.494.494 0 0 1-.272.08z"></path><path fill="#231f20" d="M33.32 59.42c-.259 0-.514-.051-.736-.183-.278-.164-.476-.474-.571-.895s-.094-.995.129-1.328c.196-.294 1.141-.926 1.94-1.427.203-.311.805-1.065 1.987-1.301 1.22-.245 5.874-2.636 6.298-3.01a.5.5 0 0 1 .662.75c-.635.56-5.457 2.978-6.764 3.24-.985.197-1.368.901-1.372.908a.495.495 0 0 1-.18.197c-.735.46-1.614 1.057-1.753 1.216-.052.136.008.686.138.792.181.108.721.001 1.045-.21.068-.044 9.51-5.67 9.833-5.817a.452.452 0 0 1 .239-.044c.452.03.994.056 1.122.047.216-.067 1.676-.872 1.97-1.128a.824.824 0 0 0 .11-.111.5.5 0 0 1 .276-.444l-.002.001c-.007 0 .279-.227.932-1.232.564-.868 1.263-1.286 1.823-1.623.292-.175.544-.325.682-.49.137-.16.169-.2-.227-.553-.224-.19-1.272-.468-1.797-.468-.367 0-1.447.222-2.042.361a.493.493 0 0 1-.6-.372.498.498 0 0 1 .372-.6c.169-.04 1.667-.389 2.27-.389.57 0 1.96.269 2.43.69.31.28 1.152 1.034.36 1.976-.247.291-.58.491-.933.703-.498.298-1.062.636-1.5 1.31-.507.78-.848 1.182-1.068 1.39-.05.173-.171.381-.43.605-.303.265-2.117 1.343-2.56 1.372-.21.01-.81-.02-1.107-.038-1.023.588-9.254 5.462-9.606 5.692-.306.2-.845.413-1.37.413zm14.14-8.095zm0-.002zm0-.001z"></path><path fill="#231f20" d="M33.378 62.084c-.333 0-.8-.04-1.307-.209-1.288-.43-3.281-7.51-3.298-7.58-.12-.52.043-1.035.436-1.378.492-.43 1.233-.52 1.988-.234.614.232 1.094.1 1.519-.02l.135-.038c.486-.129 1.573-.418 3.167-2.156 1.762-1.924 4.473-3.244 4.587-3.3a.5.5 0 0 1 .436.9c-.026.013-2.655 1.297-4.287 3.076-1.79 1.954-3.122 2.308-3.624 2.441l-.147.04c-.485.135-1.22.34-2.14-.007-.471-.18-.814-.09-.976.051a.385.385 0 0 0-.119.4c.28 1.217 2.054 6.419 2.686 6.878.386.126.754.145.999.137.097-.31.145-.62.101-.72-.64-.41-.573-1.489-.553-1.7a.486.486 0 0 1 .545-.449.5.5 0 0 1 .451.544c-.03.341.046.746.155.819.755.502.283 1.79.12 2.173a.498.498 0 0 1-.374.297 3.094 3.094 0 0 1-.5.035z"></path><path fill="#ff6d00" d="M13.125 55.192s-2.375 1.709-2.48 2.146c-.103.438-.228.959.21.917s2.5-.354 3.02.333c.52.688.896 1.75.812 1.917-.083.167 8.271-6.98 8.75-7.271.48-.292.896-.146 1.209-.52s2.208-1.938 2.27-2.126 1.938-1.75 2.376-2.156 1.156-.813.812-1.5-1.094-1.469-1.781-1.938-1.719-.968-2.656-.468-2.47 1.531-2.625 1.593-.47-.093-1 .438-1.72 1.312-1.875 1.531-.188.781-.188.781l-6.854 6.323z"></path><path fill="#ab0738" d="m10.417 59.005 1.708-1.083 1.5.583.979 1.229v1.729l-3.458.375-1.714-.219.172-1.364.542-.833z"></path><path fill="#231f20" d="M14.602 61.006c-.09 0-.149-.046-.224-.105a.505.505 0 0 1-.182-.49c-.032-.23-.316-.988-.72-1.52-.07-.093-.453-.379-2.402-.157l-.172.02c-.361.034-.572-.137-.664-.243-.302-.347-.184-.844-.08-1.282.037-.16.149-.622 2.65-2.424l6.69-6.172c.03-.252.099-.607.262-.836.113-.157.348-.339.83-.7.374-.284.84-.636 1.098-.893.472-.472.849-.55 1.187-.564.04-.017.27-.164.573-.356.586-.372 1.389-.882 1.984-1.2.628-.333 1.684-.517 3.172.497.802.547 1.584 1.402 1.948 2.127.463.926-.295 1.561-.701 1.902-.077.063-.152.126-.22.188-.138.13-.42.373-.743.655-.478.413-1.354 1.17-1.532 1.376-.09.175-.327.399-1.264 1.227-.42.371-.942.833-1.063.978-.285.341-.623.417-.894.476-.16.036-.3.067-.438.152-.265.172-2.764 2.279-4.772 3.971-3.287 2.77-4.002 3.373-4.323 3.373zm-2.28-3.357c.838 0 1.58.146 1.951.638.19.25.516.802.724 1.337.742-.613 2.07-1.733 3.283-2.755 2.872-2.421 4.634-3.902 4.898-4.062.28-.17.536-.227.74-.272.22-.05.283-.07.344-.142.157-.19.546-.536 1.168-1.086.368-.325.916-.81 1.048-.96.102-.195.4-.48 1.755-1.651.313-.27.584-.506.72-.63.078-.073.165-.148.255-.223.513-.43.53-.525.45-.687-.29-.577-.954-1.296-1.616-1.748-.863-.59-1.582-.74-2.14-.44-.561.299-1.345.796-1.918 1.16-.538.341-.663.418-.757.455-.118.048-.225.052-.311.056-.128.005-.26.01-.52.272-.308.307-.784.667-1.204.983-.237.179-.562.425-.63.5a2.26 2.26 0 0 0-.084.504.501.501 0 0 1-.16.339l-6.854 6.323a.452.452 0 0 1-.047.039c-.995.715-2.16 1.655-2.306 1.913-.007.044-.025.13-.04.217.418-.046.846-.08 1.25-.08zm-1.275.306h.01-.01zm2.078-2.762h.01-.01z"></path><path fill="#231f20" d="M14.573 62.15h-.003l-5.14-.03a.503.503 0 0 1-.369-.165.505.505 0 0 1-.126-.382c.004-.05.118-1.243.37-1.95.278-.777 1.364-1.596 1.487-1.687a.5.5 0 0 1 .595.805c-.398.294-1.014.867-1.14 1.218-.11.307-.194.779-.25 1.164l4.208.026c.054-.194.107-.416.12-.57-.014-.154-.318-.808-.652-1.378a.5.5 0 0 1 .863-.506c.378.646.821 1.512.785 1.965-.035.44-.25 1.08-.274 1.152a.5.5 0 0 1-.474.339z"></path><path fill="#e6e7e8" d="m47.635 14.338 1.886.834 1.416-1.417.25-1.438.875-2.229.23-.984-1.521-.37-1.323-.646-.927.771-.938 1.354.229 1.688.323.984z"></path><path fill="#546187" d="M49.93 8.661s-.713.64-.882 1.2c-.364 1.212-1.012 1.141-1.012 1.141l-.317-.306.659-1.788.764-.588.636-.353.153.694z"></path><path fill="#d3cabe" d="M43.104 8.922s-8.25-2.73-8.354-2.792l-4.167-2.521-.833.083 2.375 2.605 5.146 2.02 9.896 2.917.458-.396-.583-.833-3.938-1.083z"></path><path fill="#546187" d="M48.135 12.885s.75-.125 1.22.031 1.312.782 1.312.782l-.672 1.218s-.438-.375-1.125-.578-1.078-.281-1.078-.281l.343-1.172z"></path><path fill="#ff6d00" d="M35.448 23.307s-1.25 1.406-.813 4.656 2.22 4.719 2.22 4.719-1.72-2.969-1.407-5.281.719-3.844.719-3.844l-.72-.25z"></path><path fill="#ff6d00" d="M34.969 25.4s-1.25 1.407-.813 4.657 2.219 4.719 2.219 4.719-1.719-2.969-1.406-5.282.718-3.843.718-3.843l-.718-.25z"></path><path fill="#231f20" d="M42.792 48.963a.473.473 0 0 1-.098-.01c-.062-.012-.41-.092-1.15-.445-.582-.28-.955-.666-1.228-.949-.098-.103-.188-.197-.278-.271-.285-.229-2.977-1.603-4.621-2.267-.964-.39-1.217-.31-1.723-.148-.248.08-.557.178-.986.242-.91.132-2.106 1.22-2.49 1.629a.5.5 0 0 1-.728-.686c.166-.176 1.66-1.727 3.073-1.934.348-.05.591-.128.827-.204.685-.22 1.189-.316 2.402.173 1.524.616 4.442 2.064 4.879 2.421.118.096.236.217.366.352.243.253.52.54.94.74.63.302.916.368.918.368.268.06.44.324.383.593a.498.498 0 0 1-.486.396z"></path><path fill="#3d4760" d="m40.5 9.338 1.104-.791 4.938 1.437-.25.896z"></path><path fill="#ab0738" d="m40.833 8.151-.75 1.021 1.167.395.667-.916z"></path><path fill="#231f20" d="M23.51 46.37a.5.5 0 0 1-.445-.728c.012-.023 1.19-2.328 2.101-3.982.585-1.064.756-1.995.907-2.816.075-.411.147-.8.262-1.173.78-2.543 1.63-4.482 2.525-5.764 1.168-1.675 1.95-6.881 1.958-6.934-.006-3.684 3.05-6.74 6.807-6.74 1.986.286 4.152.555 4.486.52.048-.03.241-.265.383-.436.28-.337.626-.757 1.114-1.082.833-.556 3.4-2.897 3.624-3.192.098-.135.273-.704.391-1.2l-.556-1.071a.498.498 0 0 1-.051-.3c.05-.361.329-2.195.87-2.809.524-.593 1.299-1 1.33-1.018a.498.498 0 0 1 .386-.032c.223.071.483.186.663.363.221-.016.532.009.749.277.056-.002.128-.004.178-.007.208-.011.46-.029.676.109h.07c.17.005.457.01.667.234a.71.71 0 0 1 .187.534c-.01.266-.177.712-.469 1.478-.186.492-.42 1.104-.453 1.331-.11.748-.328 1.828-.941 2.577-.478.584-1.465 1.791-1.649 2.157-.02.041-2.802 4.618-3.273 4.932-.017.01-1.679 1.084-2.34 1.084-.268 0-1.705.207-2.549.338l-.23.06.148.93a.496.496 0 0 1-.13.42.518.518 0 0 1-.41.156c-.312-.029-3.062-.29-3.65-.454-.609-.169-1.63-.764-1.745-.832a.5.5 0 1 1 .507-.861c.28.164 1.097.616 1.505.73.315.087 1.713.246 2.833.359l-.117-.737a.5.5 0 0 1 .368-.561l.719-.188c.427-.069 2.328-.36 2.75-.36.256-.03 1.372-.64 1.786-.916.297-.309 2.713-4.105 2.934-4.547.216-.43.958-1.351 1.765-2.339.513-.626.676-1.731.729-2.094.046-.311.231-.812.509-1.54.104-.275.245-.644.33-.9a.848.848 0 0 1-.333-.11h-.002c-.04 0-.083.006-.128.009-.241.015-.671.042-.947-.268-.51.046-.69-.147-.771-.305a.778.778 0 0 0-.052-.028c-.221.136-.588.384-.85.682-.215.243-.473 1.26-.607 2.129l.566 1.09c.054.104.07.223.045.337-.068.31-.311 1.353-.6 1.75-.316.435-3.034 2.873-3.877 3.435-.366.244-.648.586-.898.888-.309.373-.577.696-.962.779-.455.095-3.173-.276-4.75-.505-3.133.005-5.74 2.612-5.74 5.817-.039.297-.83 5.566-2.132 7.433-.836 1.197-1.64 3.043-2.391 5.485-.1.328-.164.68-.233 1.06-.157.852-.352 1.912-1.014 3.118-.903 1.64-2.075 3.933-2.087 3.955a.5.5 0 0 1-.445.273zM51.427 9.239zm-.962-.93v.002-.002z"></path><path fill="#fff3e3" d="m30.073 2.4 16.875 7.407.635.406s-2.51-.344-2.948-.625-8.375-2.219-9.843-3.062-4.813-2.969-4.813-2.969l-.687-.969.78-.187z"></path><path fill="#231f20" d="M49.27 20.924c-.043 0-.086 0-.13-.004-.766-.04-2.588-.082-2.59-.082l.024-1s1.844.042 2.62.084c.567.024.938-.289 1.024-.525.2-.55 1.156-3.753 1.177-4.17 0-.19-.076-.342-.221-.615a5.933 5.933 0 0 1-.192-.38c-.234-.516-.324-1.315-.334-1.403a.5.5 0 0 1 .445-.55c.26-.024.52.169.55.444.021.198.107.782.25 1.096.053.117.109.222.163.322.167.314.34.637.34 1.093 0 .6-1.147 4.252-1.239 4.505-.22.602-.931 1.185-1.888 1.185zm-1.758-9.148a.475.475 0 0 1-.075-.006c-.771-.114-1.072-.26-1.2-.355-.63-.245-5.932-1.615-7.684-2.028C36.903 9 33.56 7.674 32.276 6.56c-.438-.38-.903-.735-1.345-1.074-.767-.585-1.49-1.138-1.94-1.716-.377-.484-.362-.886-.283-1.138.179-.571.802-.78.872-.802a.51.51 0 0 1 .347.017l18 7.719c.254.11.37.403.262.657a.505.505 0 0 1-.657.263L29.74 2.856c-.04.028-.071.057-.078.075 0 0-.002.07.118.226.37.475 1.044.989 1.757 1.534.46.351.94.719 1.396 1.113 1.11.966 4.314 2.25 5.848 2.61.077.018 7.73 1.874 8.083 2.227.037.007.405.094.72.14a.5.5 0 0 1-.072.994z"></path><path fill="#546187" d="m36.604 13.547.229-1.25 1.667-1.063 1.937-.125 1.896.792 1.125 2.333-.396.667-2.229-.459z"></path><path fill="#3d4760" d="M36.458 15.109s.396-.77 1.48-.604c1.083.167 3.541.479 3.874.917.334.437 1.292.125 1.292.125l-2.125-1.021-3.667-.709-1.437-.229.083 1 .5.521z"></path><path fill="#ab0738" d="m53.057 13.088-.609-.297.297-.968 3.906 1.109-.578 1.484z"></path><path fill="#e6e7e8" d="M42.51 15.432s-.64.844-.468 1.453.796.578.796.578l.641-1.39-.969-.641z"></path><path fill="#231f20" d="M56.073 14.916a.483.483 0 0 1-.147-.022l-1.969-.61c-.176-.053-.72-.366-1.618-.928a.5.5 0 0 1 .531-.848c.565.354 1.259.77 1.398.827l1.49.461.249-.716a.501.501 0 0 1 .945.328l-.406 1.172a.5.5 0 0 1-.473.336zm-19.138 4.207a.563.563 0 0 1-.393-.16c-.178-.178-.303-.488-.534-1.765-.074-.412-.063-1.484-.054-1.924-.257-.339-.741-1.055-.624-1.485.025-.141.07-.393.317-.564a.86.86 0 0 1 .39-.14c.12-.42.41-1.186 1.016-1.645.56-.425 1.677-1.109 2.902-.907l.366.054c.855.124 1.918.279 2.564 1.057.782.943.891 2.108.906 2.442.02.467.081 1.074.081 1.077a.498.498 0 0 1-.405.542l-.667.125a.503.503 0 0 1-.592-.477 1.083 1.083 0 0 0-.183-.11c-.296-.115-3.21-.72-5.078-1.08a4.971 4.971 0 0 0-.571-.085c.123.232.362.587.454.697.078.094.13.225.128.347-.016.577-.02 1.601.034 1.898.18.994.272 1.234.302 1.292.195.195.173.483-.023.679a.468.468 0 0 1-.336.132zm.126-5.957.076.014c.2.04 4.898.95 5.336 1.169.137.07.252.14.345.213a17.9 17.9 0 0 1-.026-.432c-.008-.18-.08-1.126-.677-1.847-.4-.483-1.181-.596-1.937-.706l-.383-.058c-.887-.14-1.791.455-2.139.718-.285.217-.481.614-.595.93z"></path><path fill="#231f20" d="M41.153 19.792a.784.784 0 0 1-.419-.112.668.668 0 0 1-.31-.441.5.5 0 0 1 .797-.486c.409-.286 1.406-1.597 1.558-2.022.112-.309.118-1.078.097-1.491a.5.5 0 0 1 .473-.526c.285-.037.511.198.525.473.007.13.061 1.285-.153 1.884-.171.474-1.518 2.458-2.203 2.663-.13.039-.251.058-.365.058z"></path><path fill="#546187" d="M50.448 12.038a.144.144 0 0 1-.08-.024 3.158 3.158 0 0 0-1.852-.509c-.092.008-.152-.061-.156-.145a.152.152 0 0 1 .146-.155c.478-.011.928.058 1.36.221.23.087.453.2.663.336a.15.15 0 0 1 .045.207.15.15 0 0 1-.126.07z"></path><circle cx="11.601" cy="43.775" r="1.699" fill="#f1f2f2"></circle><path fill="#231f20" d="M11.602 45.974a2.2 2.2 0 0 1 0-4.398c1.212 0 2.199.986 2.199 2.199s-.987 2.199-2.2 2.199zm0-3.398c-.662 0-1.2.538-1.2 1.199s.538 1.199 1.2 1.199a1.2 1.2 0 0 0 0-2.398z"></path><path fill="#ab0738" d="M22.995 51.938a.1.1 0 0 1-.099-.083 2.87 2.87 0 0 0-.754-1.51 2.812 2.812 0 0 0-1.177-.724.1.1 0 0 1-.066-.125c.017-.051.07-.08.126-.066.333.105.823.324 1.261.776.567.586.75 1.264.808 1.616a.1.1 0 0 1-.082.115h-.017zm-7.292 6.583a.1.1 0 0 1-.099-.083 2.87 2.87 0 0 0-.754-1.51 2.824 2.824 0 0 0-1.177-.723c-.053-.017-.082-.074-.066-.126s.074-.08.126-.066c.48.151.915.42 1.261.776.567.586.75 1.264.808 1.616a.1.1 0 0 1-.082.115h-.017zm10.355-9.052a.1.1 0 0 1-.1-.083 2.87 2.87 0 0 0-.754-1.51 2.812 2.812 0 0 0-1.177-.723.1.1 0 0 1-.065-.126c.017-.052.067-.08.126-.066.333.105.822.325 1.26.777.568.586.75 1.263.808 1.615a.1.1 0 0 1-.082.115l-.016.001zM14.895 55.5a.1.1 0 0 1-.075-.033.101.101 0 0 1 .009-.141l5.334-4.708a.1.1 0 0 1 .142.008.101.101 0 0 1-.01.142l-5.333 4.708a.102.102 0 0 1-.067.024zm6.84-6.464a.1.1 0 0 1-.063-.177l1.869-1.525a.1.1 0 0 1 .14.014.1.1 0 0 1-.013.14l-1.87 1.525a.097.097 0 0 1-.064.023zm.797.474a.1.1 0 0 1-.063-.177l1.87-1.524a.099.099 0 0 1 .14.014.1.1 0 0 1-.013.14l-1.87 1.525a.097.097 0 0 1-.064.022zm.627.716a.1.1 0 0 1-.063-.177l1.87-1.525a.1.1 0 0 1 .14.014.1.1 0 0 1-.013.14l-1.87 1.526a.097.097 0 0 1-.064.022zm.484 1.188a.1.1 0 0 1-.063-.177l1.87-1.524a.1.1 0 0 1 .14.014.1.1 0 0 1-.013.14l-1.87 1.525a.097.097 0 0 1-.064.022zm-7.904 4.743a.1.1 0 0 1-.075-.034.101.101 0 0 1 .009-.141l5.334-4.708a.1.1 0 0 1 .133.15l-5.334 4.708a.102.102 0 0 1-.067.025zm.688.906a.1.1 0 0 1-.075-.033.101.101 0 0 1 .008-.142l5.334-4.708a.1.1 0 0 1 .142.009.101.101 0 0 1-.009.141l-5.334 4.708a.102.102 0 0 1-.066.025zm20.22-.734a.1.1 0 0 1-.087-.05.1.1 0 0 1 .038-.137l6.16-3.558a.102.102 0 0 1 .137.037.1.1 0 0 1-.037.137l-6.16 3.558a.102.102 0 0 1-.05.013z"></path><path fill="#231f20" d="M42.413 17.891a.101.101 0 0 1-.055-.016 7.439 7.439 0 0 0-.57-.34 7.54 7.54 0 0 0-1.267-.523 8.367 8.367 0 0 0-1.963-.355 8.65 8.65 0 0 0-2.23.154c-.055.016-.107-.023-.118-.078a.098.098 0 0 1 .078-.117 8.914 8.914 0 0 1 2.281-.159 8.606 8.606 0 0 1 2.013.364 7.338 7.338 0 0 1 1.886.887.1.1 0 0 1-.055.183zM42.526 18.829a.101.101 0 0 1-.054-.016 7.439 7.439 0 0 0-.57-.34 7.523 7.523 0 0 0-1.267-.523 8.423 8.423 0 0 0-1.964-.356 8.652 8.652 0 0 0-2.232.154.096.096 0 0 1-.117-.078.098.098 0 0 1 .078-.117 8.82 8.82 0 0 1 2.283-.158 8.62 8.62 0 0 1 2.011.363 7.338 7.338 0 0 1 1.887.887.1.1 0 0 1-.055.184z"></path><path fill="#231f20" d="M38.698 18.72a.1.1 0 0 1-.092-.06l-.5-1.124a.093.093 0 0 1-.007-.043l.015-.985c0-.055.059-.1.102-.097a.1.1 0 0 1 .097.101l-.014.962.491 1.105a.101.101 0 0 1-.05.132.102.102 0 0 1-.042.008zM39.401 18.813a.11.11 0 0 1-.035-.006.1.1 0 0 1-.058-.129l.421-1.125.12-.869c.007-.055.06-.1.113-.085a.099.099 0 0 1 .085.112l-.125.891-.427 1.146a.1.1 0 0 1-.094.065z"></path></svg>