<svg xmlns="http://www.w3.org/2000/svg" width="64" height="64" id="game"><path fill="#ff6d00" d="M37.781 3.721a3.769 3.769 0 0 1-.95 5.245 3.769 3.769 0 0 1-5.245-.952 3.769 3.769 0 0 1 .95-5.244 3.769 3.769 0 0 1 5.245.951z"></path><circle cx="12.047" cy="48.915" r="14.312" fill="#ff6d00" transform="rotate(-30.049)"></circle><circle cx="19.057" cy="60" r="14.312" fill="#ab0738" transform="rotate(-30.049)"></circle><path fill="#edb29f" d="m36.951 8.943-.375-1.437 3.219-1.157-1.198 3.021-1.416 4.375.041 3.042.875 1.875 1.651 1.46 1.391.373 1.281-.599 1.469-1.859.833-.708.042-1.25-.792-.75-1-.667-.583-.917-1.5-1.291-.458-1.834.25-.416 3.125 2.333 2.916 2.958 2.125 2.375.959 2.334.708 2.25.156 1.63-.797 1.547-.375 1.421-1.776-1.807-8.646.354.313-2.104-1.75-1.083-1.667-1.583-2.25-2.167.792-4.375 1.333-2.583.417-1.625z"></path><path fill="#ab0738" d="M43.686 21.38s.015.391.75.47c.734.077 1.781.14 1.984.03.203-.109.656-.218.656-.218s-.03 1.062.61 2.344c.64 1.28 1.812 3.046 1.812 3.046l-1.776 7.11-8.375-.375-.791-4.792.666-4.375s.495-.068.98-1.083c.484-1.016.546-1.578.796-1.875.25-.297 1.009-.87 1.009-.87l.976.464.703.125z"></path><path fill="#fafbff" d="M46.368 49.329s-1 .229-1.667-.167c-.666-.396-1.437-.521-1.437-.521l-.604 2.396.02 1.708-.666.334-.5.375-1.021.895.125 2.521.688.146 1.77 1.417 1.98.166.75-.354-.875-2.666.75-3 .687-3.25z"></path><path fill="#edb29f" d="m43.639 47.683-3-3.334 5.792-2.187.541 5.208 1.459.292-1.834 3.75-3.937-.375z"></path><path fill="#ab0738" d="M42.67 57.13s-.047.532.375.907.844.515 1.047.484c.203-.031 1.687-.5 1.687-.5L47 59.74l1.484 1.812.75.907-1.063.843-2.64-.656-2.376-2.812-.984-.813-.672-.14-1.156 2.187-.781-.094-.953-1.015.187-1.86 1.328-1.922-.203-1.39-.14-1.39 1.124-.532.72.812s.14-.093-.22.22c-.359.312-.578.327-.609.921-.031.594-.031 1.094.188 1.313.218.218.328.28.843.156.516-.125.907-.203.985-.297.078-.094.234.484.234.484l-.375.657z"></path><path fill="#32313c" d="m39.222 33.412 8.5.75.5 1.833 1.386 5.136-.802 4.448-.688 3.125-1.48.02.834-3.541-.52-1.792s-.126.02-2.271.333c-2.146.313-2.813 1.73-2.813 1.73l1.167 1.208.604 1.02-.396.709-1.77-.75-.042-2.583-1.875-2.563-1.105-3.052.157-4.125.614-1.906z"></path><path fill="#231f20" d="M45.347 53.454c-.14 0-.137-.06-.236-.175a.5.5 0 0 1 .054-.705c.15-.128.439-.526.647-.824.336-.477 1.74-2.903 1.838-3.359.125-.584 1.467-7.357 1.467-7.358.423-2.797-1.79-5.37-1.812-5.396a.497.497 0 0 1-.124-.316c-.004-.17-.096-4.168.97-5.9.93-1.51 1.223-3.829 1.226-3.851a.5.5 0 0 1 .049-.163s.521-1.042.806-1.563c.162-.298.132-.466.131-.472-.016-.05-.016-.074-.016-.126 0-.014-.034-1.624-1.51-4.03-1.527-2.495-5.803-6.578-6.54-7.078-.416-.28-1.024-.705-1.499-1.039.041.313.164.68.466 1.025.446.506.716.657.932.778.215.12.458.257.64.62.236.472.448.842.849.948.853.229 1.23.832 1.943 2.26.316.632.485 1.235.636 1.769.201.714.375 1.332.84 1.881.641.758.895.955.948.993a.5.5 0 0 1 .286.547.497.497 0 0 1-.576.4c-.294-.049-.65-.077-.741-.063-.131.034-.493.194-.695.292l-.274.166a.5.5 0 1 1-.514-.857l.313-.188c.112-.056.474-.23.76-.33a17.88 17.88 0 0 1-.271-.313c-.605-.716-.826-1.5-1.039-2.258-.145-.514-.294-1.045-.567-1.592-.704-1.406-.912-1.635-1.307-1.74-.867-.232-1.24-.976-1.485-1.468-.042-.084-.055-.094-.234-.194-.253-.142-.636-.356-1.194-.991-1.093-1.242-.64-2.694-.621-2.754a.5.5 0 0 1 .764-.254c.001 0 1.432 1.015 2.2 1.534.798.54 5.209 4.73 6.834 7.382 1.488 2.43 1.64 4.142 1.654 4.49.035.186.06.599-.236 1.14-.233.428-.628 1.214-.751 1.458-.066.468-.409 2.626-1.356 4.165-.718 1.168-.838 3.983-.824 5.179.506.63 2.364 3.174 1.924 6.082-.004.022-1.349 6.81-1.474 7.394-.152.71-1.73 3.342-1.997 3.724-.323.463-.934.987-.959 1.01a.497.497 0 0 1-.325.12z"></path><path fill="#231f20" d="M47.293 63.774c-.583 0-1.164-.107-1.542-.366-.394-.273-4.02-3.91-4.17-4.359-.084-.252-.289-1.147.585-2.1.393-.428.38-.576.36-.823a2.331 2.331 0 0 1-.011-.322c-.001-.095-.037-.327-.083-.65-.185-1.29-.528-3.693-.089-5.349.201-.759.343-1.24.44-1.571.146-.5.173-.598.17-.776-.128-.214-.684-.806-1.136-1.288-1.135-1.206-2.547-2.708-3.057-3.942-.785-1.901-1.145-4.664-.82-6.289.19-.951.368-1.201.598-1.451.081-.088.14-.152.228-.381.12-.315-.02-.845-.185-1.458-.142-.533-.304-1.138-.347-1.799-.083-1.28.187-3.815.302-4.898l.042-.4c.046-.467.181-1.317.26-1.795-.72-.415-2.067-1.23-2.393-1.703l-.197-.29c-.29-.433-.653-.97-.978-1.296-.149-.148-.417-.328-.678-.503-.518-.346-.926-.62-1.03-1-.125-.463-.186-1.56.188-2.53.36-.93 1.676-4.532 1.933-5.34.067-.213.086-.329.09-.385a.568.568 0 0 1-.123-.41c.015-.172.095-.302.398-.775.133-.207.38-.594.419-.704-.018-.06-.182-.56-.251-.774-.11-.336-.14-.428-.14-.542 0-.783 3.643-1.672 3.68-1.672.132 0 .28.06.373.154a.54.54 0 0 1 .166.362c0 .347-1.25 3.96-1.688 4.501-.2.246-.31.887-.439 1.629-.06.347-.126.73-.212 1.144-.18.877-.244 2.055-.287 2.835-.025.47-.039.713-.064.869.369.25.962.68 1.298 1.068.351.406.884 1.015 1.112 1.274.77.17 1.945.46 2.294.725.425.322.515.5.548.632a.5.5 0 0 1-.924.361 1.736 1.736 0 0 0-.229-.196c-.186-.121-1.217-.399-2.061-.58a.505.505 0 0 1-.272-.158s-.765-.873-1.224-1.404c-.336-.386-1.123-.917-1.398-1.089a.5.5 0 0 1-.205-.594l.083-.229c.013-.076.024-.36.044-.732.044-.81.11-2.033.307-2.986.083-.4.146-.773.205-1.11.165-.951.284-1.639.644-2.086.217-.276.885-2.1 1.244-3.185a31.18 31.18 0 0 0-1.898.718c.229.699.316 1.032.27 1.279-.04.213-.2.477-.553 1.029-.065.1-.126.195-.175.274.102.256.072.581-.08 1.059-.28.889-1.622 4.545-1.951 5.397-.297.769-.232 1.632-.156 1.908.046.048.392.279.62.432.3.201.612.41.829.627.393.394.768.951 1.1 1.444l.193.283c.166.242 1.356 1.008 2.363 1.571a.502.502 0 0 1 .249.522c-.003.013-.248 1.447-.308 2.066l-.043.411c-.113 1.058-.377 3.534-.3 4.728.037.562.18 1.092.316 1.605.201.75.39 1.457.152 2.075-.157.408-.312.576-.425.7-.105.113-.203.22-.353.968-.25 1.252-.03 3.791.763 5.712.44 1.065 1.84 2.553 2.861 3.64 1.056 1.123 1.39 1.495 1.406 1.864.016.399-.036.576-.209 1.165-.095.326-.234.8-.432 1.546-.388 1.46-.051 3.818.111 4.952.07.493.099.7.092.84-.003.066.004.128.009.19.037.437.017.888-.62 1.582-.448.489-.42.897-.386 1.054.391.498 3.293 3.553 3.803 3.905.417.288 1.714.233 2.183-.026.186-.102.185-.106.157-.294-.005-.036-.01-.071-.012-.104-.19-.27-.993-1.065-1.437-1.504-.316-.315-.603-.598-.771-.78-.411-.443-1.181-1.522-1.704-3.767-.387-1.666.934-6.275 1.755-8.874.227-.719.23-2.327.076-3.1-.11-.546-.84-1.905-1.274-2.634a.5.5 0 1 1 .86-.511c.124.208 1.215 2.057 1.394 2.948.18.91.178 2.71-.098 3.583-1.31 4.147-1.975 7.346-1.739 8.361.488 2.095 1.186 3.016 1.463 3.314.162.176.438.448.742.75 1.5 1.485 1.725 1.759 1.725 2.09.049.346.138.96-.653 1.397-.373.205-1.034.34-1.693.34z"></path><path fill="#231f20" d="M42.701 21.91c-.489 0-.586-.096-.681-.192-.385-.385-.296-1.668-.019-2.094.013-.021 1.486-2.107 1.99-2.385.316-.173.978-.52.978-.52l.465.886c-.001 0-.65.34-.96.51-.243.18-1.389 1.676-1.635 2.053-.061.116-.088.49-.073.742a17.342 17.342 0 0 0 1.625-.18.5.5 0 0 1 .152.988c-.922.142-1.485.193-1.842.193zM39.765 61.662a.977.977 0 0 1-.077-.003c-.56-.041-.912-.5-1.029-.65-.292-.38-.582-1.153-.304-2.686.143-.791.432-1.27.666-1.654.154-.255.266-.44.288-.643.028-.274.033-.605.038-.944.01-.673.021-1.369.196-1.859.296-.832 1.11-1.057 1.775-.927.211.044.378.133.507.246l.396-.537a.5.5 0 1 1 .805.594l-.88 1.194a.5.5 0 0 1-.902-.3c-.002-.04-.015-.194-.128-.217-.15-.03-.507-.066-.631.283-.119.334-.13.974-.138 1.538-.006.372-.013.735-.044 1.033-.045.425-.24.746-.427 1.057-.21.347-.427.704-.537 1.314-.245 1.35.05 1.817.112 1.897.183.237.284.262.31.264.05 0 .113-.03.219-.131.396-.382 1.242-1.892 1.682-2.753a.5.5 0 1 1 .89.455c-.123.243-1.232 2.395-1.879 3.018-.343.332-.672.41-.908.41zM43.243 48.891a.496.496 0 0 1-.195-.04l-1.771-.75a.5.5 0 0 1-.305-.452l-.041-2.583a.5.5 0 0 1 .492-.508c.29.035.503.216.508.492l.036 2.258 1.472.623a.499.499 0 0 1-.196.96zM45.91 29.787a.503.503 0 0 1-.256-.07 13.29 13.29 0 0 1-3.831-3.42.5.5 0 1 1 .797-.603 12.332 12.332 0 0 0 3.544 3.162.501.501 0 0 1-.255.93zM42.618 38.87a.503.503 0 0 1-.255-.069 13.254 13.254 0 0 1-3.832-3.42.502.502 0 0 1 .098-.702.503.503 0 0 1 .701.098 12.205 12.205 0 0 0 3.543 3.163.5.5 0 0 1-.255.93zM47.514 34.1a.503.503 0 0 1-.255-.07 13.325 13.325 0 0 1-3.831-3.42.5.5 0 1 1 .797-.604c.52.688 1.112 1.32 1.762 1.882.553.478 1.153.91 1.782 1.28a.5.5 0 0 1-.255.931zM34.606 10.198a4.29 4.29 0 0 1-.77-.07 4.242 4.242 0 0 1-2.748-1.768 4.275 4.275 0 0 1 1.077-5.942 4.276 4.276 0 0 1 5.94 1.078 4.24 4.24 0 0 1 .692 3.194 4.242 4.242 0 0 1-1.768 2.747c-.723.5-1.563.76-2.423.76zm-.016-7.54c-.66 0-1.302.199-1.854.583a3.244 3.244 0 0 0-1.355 2.103c-.156.86.032 1.728.53 2.446a3.244 3.244 0 0 0 2.103 1.354 3.23 3.23 0 0 0 2.444-.53 3.249 3.249 0 0 0 1.356-2.103 3.243 3.243 0 0 0-.53-2.445A3.244 3.244 0 0 0 35.18 2.71a3.256 3.256 0 0 0-.59-.053Z"></path><path fill="#231f20" d="M31.13 6.963c-.08 0-.16-.004-.235-.01a.5.5 0 0 1-.45-.546.512.512 0 0 1 .545-.45c.536.05 1.569-.211 2.856-1.105 1.21-.838 1.978-1.653 2.108-2.235a.5.5 0 0 1 .977.219c-.194.86-1.04 1.815-2.515 2.838-1.195.828-2.376 1.29-3.286 1.29zM33.126 9.78a.501.501 0 0 1-.488-.61c.204-.91 1.178-2.063 2.54-3.01 1.385-.956 2.35-1.328 3.25-1.244.274.026.4.27.374.545-.027.277-.2.466-.47.45-.62-.059-1.426.27-2.583 1.072-1.299.9-2.017 1.879-2.135 2.407a.501.501 0 0 1-.488.39z"></path><path fill="#231f20" d="M36.324 9.542c-.344 0-.795-.118-1.364-.489-.693-.453-1.409-1.184-2.015-2.06-1.204-1.737-1.85-3.818-.758-4.576.298-.206.962-.515 2.071.21.693.453 1.41 1.184 2.016 2.059.606.876 1.04 1.803 1.22 2.611.288 1.293-.167 1.831-.465 2.037-.144.101-.376.208-.705.208zm-3.43-6.408a.24.24 0 0 0-.137.033c-.297.206-.139 1.6 1.01 3.256.526.761 1.16 1.414 1.74 1.792.49.32.839.38.953.297.117-.08.186-.428.058-.997-.15-.675-.54-1.498-1.067-2.259-.526-.76-1.16-1.414-1.74-1.793-.361-.235-.645-.329-.816-.329Z"></path><path fill="#ff6d00" d="m44.128 43.526-2.406-4.312-.281 1.094 1.844 3.562zM42.514 23.954l3.583.625-.125 1.125-3.625-.875zM3.645.726h2v18.417h-2z"></path><path fill="#231f20" d="M5.646 19.642h-2a.5.5 0 0 1-.5-.5V.726a.5.5 0 0 1 .5-.5h2a.5.5 0 0 1 .5.5v18.416a.5.5 0 0 1-.5.5zm-1.5-1h1V1.226h-1v17.416z"></path><path fill="#ff6d00" d="M11.281 5.122v-2H22.52v2z"></path><path fill="#231f20" d="M22.52 5.622H11.28a.5.5 0 0 1-.5-.5v-2a.5.5 0 0 1 .5-.5h11.24a.5.5 0 0 1 .5.5v2a.5.5 0 0 1-.5.5zm-10.74-1h10.24v-1H11.78v1z"></path><path fill="#231f20" d="M11.234 4.632H5.64a.5.5 0 1 1 0-1h5.593a.5.5 0 1 1 0 1z"></path><path fill="#231f20" d="M14.109 15.892a.5.5 0 0 1-.5-.5c0-4.209-2.751-9.996-2.78-10.055a.5.5 0 0 1 .903-.431c.117.244 2.877 6.049 2.877 10.486a.5.5 0 0 1-.5.5zM19.614 15.892a.5.5 0 0 1-.5-.5c0-4.437 2.76-10.242 2.877-10.486a.5.5 0 0 1 .902.432c-.028.058-2.779 5.845-2.779 10.054a.5.5 0 0 1-.5.5z"></path><path fill="#231f20" d="M12.28 7.742a.499.499 0 0 1-.343-.863l2.196-2.07a.499.499 0 1 1 .686.727l-2.196 2.069a.495.495 0 0 1-.343.137zM12.984 9.934a.5.5 0 0 1-.349-.858l4.428-4.302a.5.5 0 1 1 .697.717l-4.428 4.301a.498.498 0 0 1-.348.142zM13.744 11.965a.5.5 0 0 1-.35-.857l6.293-6.167a.5.5 0 1 1 .7.715l-6.293 6.167a.5.5 0 0 1-.35.142zM14.099 14.215a.498.498 0 0 1-.35-.856l7.801-7.677a.5.5 0 1 1 .701.713l-7.802 7.677a.499.499 0 0 1-.35.143zM15.52 15.637a.5.5 0 0 1-.348-.858l4.864-4.74a.5.5 0 0 1 .698.717l-4.865 4.74a.496.496 0 0 1-.348.141zM18.072 15.876a.499.499 0 0 1-.339-.867l1.636-1.51a.499.499 0 1 1 .678.735l-1.636 1.51a.497.497 0 0 1-.339.132z"></path><path fill="#231f20" d="M21.432 7.742a.495.495 0 0 1-.343-.137l-2.195-2.07a.499.499 0 1 1 .685-.727l2.196 2.07a.499.499 0 0 1-.343.864zM20.729 9.934a.498.498 0 0 1-.349-.142l-4.427-4.301a.5.5 0 1 1 .698-.717l4.426 4.302a.5.5 0 0 1-.348.858zM19.968 11.965a.5.5 0 0 1-.35-.142l-6.29-6.167a.5.5 0 1 1 .699-.715l6.29 6.167a.5.5 0 0 1-.349.857zM19.614 14.215a.499.499 0 0 1-.35-.143L11.46 6.395a.5.5 0 1 1 .701-.713l7.803 7.677a.5.5 0 0 1-.35.856zM18.193 15.637a.496.496 0 0 1-.35-.141l-4.864-4.74a.5.5 0 1 1 .697-.716l4.865 4.739a.5.5 0 0 1-.348.858zM15.64 15.876a.497.497 0 0 1-.339-.132l-1.635-1.51a.5.5 0 1 1 .678-.734l1.635 1.51a.5.5 0 0 1-.34.866z"></path></svg>